<?xml version="1.0" encoding="UTF-8" standalone="no"?>
<!DOCTYPE svg PUBLIC "-//W3C//DTD SVG 1.1//EN" "http://www.w3.org/Graphics/SVG/1.1/DTD/svg11.dtd">
<svg width="100%" height="100%" viewBox="0 0 1500 1500" version="1.1" xmlns="http://www.w3.org/2000/svg" xmlns:xlink="http://www.w3.org/1999/xlink" xml:space="preserve" xmlns:serif="http://www.serif.com/" style="fill-rule:evenodd;clip-rule:evenodd;stroke-linejoin:round;stroke-miterlimit:2;">
    <g id="Flat-vector-graphic-logo-for-a-soccer-game-titled--Football-Career-Sim---featuring-a-clean--simple-vector-style-with-bold-typography-and-iconic-football-elements." serif:id="Flat vector graphic logo for a soccer game titled &apos;Football Career Sim&apos;, featuring a clean, simple vector style with bold typography and iconic football elements." transform="matrix(1.040742,0,0,1.040742,0.214549,0.666268)">
        <path d="M524.534,336.698C606.756,322.653 609.712,322.878 612.302,320.291C630.051,302.559 664.139,265.459 738.455,270.997C791.598,274.956 828.032,314.813 833.849,321.178C835.337,322.805 835.724,322.26 1064.46,361.728C1079.645,364.348 1081.588,362.546 1081.974,366.437C1082.889,375.649 1080.701,530.068 1083.248,530.995C1086.467,532.168 1164.066,529.893 1164.688,532.405C1165.104,534.089 1164.946,595.003 1164.935,676.497C1164.924,761.959 1165.691,764.866 1163.326,766.209C1161.007,767.526 1100.17,801.153 1100.076,804.46C1099.58,822.019 1100.413,916.546 1099.602,918.548C1099.083,919.828 1096.963,919.933 1013.387,954.217L1010.44,955.352C981.052,967.441 985.267,976.125 934.098,1020.023C914.38,1036.939 846.178,1095.962 732.41,1154.324C727.68,1156.751 726.809,1156.042 672.741,1125.071C527.426,1041.832 467.132,965.342 455.475,960.557C411.999,942.71 350.543,921.854 349.917,917.47C349.111,911.832 351.782,805.22 348.423,802.611C345.273,800.164 285.956,767.955 285.852,765.436C285.791,763.956 285.646,533.458 285.892,532.622C287.04,528.723 361.756,534.093 361.87,529.554C362.522,503.564 361.007,365.806 362.775,364.868C364.08,364.176 427.8,353.28 433.461,352.312C463.819,347.107 494.176,341.902 524.534,336.698Z" style="fill:rgb(254,254,253);"/>
        <path d="M1148.91,722.501C1148.897,744.135 1149.228,755.462 1148.136,756.129C1136.001,763.541 1084.688,792.394 1084.416,794.48C1083.063,804.838 1086.479,907.425 1082.356,909.186C1054.333,921.153 988.283,946.249 984.722,949.723C955.208,978.508 885.048,1056.835 732.73,1135.966C727.083,1138.9 726.022,1137.997 661.726,1100.112C547.736,1032.946 469.259,948.747 466.427,947.692C447.635,940.692 367.516,909.593 366.497,908.503C364.665,906.544 367.457,795.8 365.098,793.911C361.578,791.093 301.291,758.56 301.227,755.541C301.224,755.366 301.143,552.609 301.296,548.464C301.455,544.153 377.435,549.1 377.57,545.521C378.366,524.354 376.448,377.872 378.718,376.927C380.267,376.282 527.48,351.219 540.422,349.016C546.674,347.952 618.273,335.762 618.549,335.579C619.679,334.826 670.911,266.091 759.402,290.834C802.099,302.772 825.144,336.172 828.478,336.644C837.229,337.884 1063.41,376.082 1065.268,376.979C1068.599,378.589 1064.606,545.345 1067.498,546.505C1071.123,547.959 1148.775,544.596 1148.866,548.44C1149.196,562.361 1148.845,562.277 1148.91,722.501Z" style="fill:rgb(13,13,13);"/>
        <path d="M711.417,316.917C726.046,320.593 726.178,319.78 739.748,326.029C743.252,327.642 751.1,320.363 762.481,319.322C767.565,318.856 768.185,320.241 771.547,316.557C772.8,315.184 813.079,340.98 814.368,355.507C815.789,371.519 816.549,371.434 814.321,387.473C813.578,392.819 835.302,420.904 834.709,425.516C834.113,430.148 830.761,456.207 814.273,480.199C810.831,485.207 816.696,469.317 813.494,469.537C781.196,471.759 780.032,473.017 778.083,475.121C756.152,498.812 748.019,502.804 749.985,505.118C759.741,516.605 768.223,517.432 761.475,519.436C629.543,558.618 552.352,393.501 665.799,320.977C679.037,312.514 705.842,304.252 704.421,308.486C702.421,314.447 702.41,314.345 702.463,314.518C702.751,315.455 703.056,315.106 711.417,316.917Z" style="fill:rgb(255,255,254);"/>
        <g>
            <path d="M591.918,420.492C595.888,466.135 603.062,466.14 612.535,485.486C613.94,488.355 610.886,486.733 550.55,501.671C447.18,527.264 443.142,531.21 443.082,525.514C443.003,517.919 442.111,432.52 443.592,430.566C444.604,429.231 471.912,425.262 503.474,419.369C510.508,418.056 589.518,403.302 591.635,404.315C592.802,404.874 592.213,405.29 591.918,420.492Z" style="fill:rgb(255,255,0);"/>
            <path d="M975.431,425.898C984.968,427.569 1000.802,429.096 1000.959,432.446C1001.004,433.409 1001.136,525.742 1000.854,527.644C1000.623,529.198 999.569,528.177 931.599,511.069C923.847,509.117 858.941,492.78 834.501,487.495C827.32,485.943 854.697,465.265 853.194,411.508C853.05,406.384 850.633,403.974 854.5,404.487C857.828,404.928 969.646,424.894 975.431,425.898Z" style="fill:rgb(255,255,0);"/>
            <path d="M972.561,897.617C963.077,908.565 911.152,968.511 839.157,1020.03C830.807,1026.006 764.454,1073.487 730.31,1088.044C727.999,1089.029 579.617,1012.469 481.463,898.536C482.174,897.08 481.819,896.698 483.507,896.568C499.547,895.333 499.527,895.332 499.548,895.335C501.262,895.616 582.889,993.583 727.398,1068.683C731.976,1071.062 858.279,1002.492 949.122,900.165C957.394,890.847 959.214,894.404 971.5,897.163L972.561,897.617Z" style="fill:rgb(255,255,0);"/>
        </g>
        <path d="M972.561,897.617C975.683,896.851 998.346,897.589 995.359,901.404C959.192,947.608 870.951,1036.384 737.335,1107.192C725.062,1113.696 723.071,1107.501 718.273,1104.917C695.666,1092.741 557.208,1018.166 463.95,909.12C456.225,900.087 456.662,898.928 457.621,898.795C477.843,896.004 479.9,897.443 481.463,898.536C579.617,1012.469 727.999,1089.029 730.31,1088.044C764.454,1073.487 830.807,1026.006 839.157,1020.03C911.152,968.511 963.077,908.565 972.561,897.617Z" style="fill:rgb(254,254,254);"/>
        <path d="M1026.103,765.497C1026.104,796.385 1026.687,802.417 1024.4,804.386C1018.765,809.235 1007.817,815.364 1010.765,821.367C1023.196,846.679 1023.068,847.221 1025.416,847.796C1035.443,850.251 1030.312,854.219 1030.285,864.498C1030.27,870.138 1030.193,871.787 1024.527,871.227C1014.432,870.229 1001.579,870.209 999.8,866.361C989.496,844.075 980.451,817.358 976.45,816.835C966.047,815.476 969.241,821.009 969.229,831.498C969.22,838.188 965.957,840.722 972.544,842.332C974.894,842.906 976.07,866.765 971.512,866.34C933.779,862.823 932.803,863.105 932.78,861.454C932.635,850.949 932.204,839.817 934.511,839.59C936.041,839.439 937.99,840.334 938.067,836.494C938.2,829.776 939.684,754.97 937.499,752.501C937.201,752.165 932.705,751.794 932.676,750.46C932.207,728.839 932.868,727.034 934.481,727.117C940.254,727.417 1002.571,730.65 1006.457,733.563C1011.791,737.561 1023.911,750.1 1025.364,751.603C1026.118,752.383 1025.787,752.496 1026.103,765.497Z" style="fill:rgb(254,254,254);"/>
        <path d="M726.928,838.502C726.811,853.132 728.393,854.654 725.614,854.84C698.314,856.672 697.748,855.47 696.764,853.379C685.299,829.009 676.531,806.141 673.546,806.075C672.911,806.061 665.79,805.905 665.747,807.555C665.205,828.123 665.549,831.674 667.541,832.088C670.735,832.751 670.568,833.297 670.604,836.499C670.624,838.195 671.788,855.734 668.536,855.819C631.315,856.798 629.971,858.648 629.184,855.6C629.125,855.369 629.147,834.076 629.351,833.447C630.116,831.081 635.176,834.209 635.253,829.488C635.361,822.856 636.559,749.579 635.206,746.587C634.037,744 629.313,747.244 629.321,742.5C629.328,738.151 628.224,721 631.53,720.869C637.052,720.652 695.666,718.34 700.606,720.153C701.98,720.658 721.641,736.518 722.078,737.7C722.175,737.963 723.342,784.971 721.365,787.383C719.584,789.554 704.531,801.528 705.978,804.273C719.449,829.834 720.12,830.407 725.46,830.738C727.837,830.885 726.663,832.091 726.928,838.502Z" style="fill:rgb(254,254,254);"/>
        <path d="M599.524,857.915C598.057,857.998 581.197,858.953 581.152,857.627C580.583,840.691 580.559,836.961 584.565,835.619C616.406,824.951 555.133,829.758 552.539,829.961C549.712,830.183 546.368,837.068 551.462,837.746C554.237,838.115 554.113,859.962 551.444,860.237C515.773,863.914 513.976,864.432 513.812,861.424C512.595,839.011 515.82,839.497 517.648,838.698C518.397,838.37 544.664,749.438 543.299,748.814C538.425,746.582 539.527,725.092 543.519,724.874C581.864,722.782 582.621,722.883 583.222,724.606C588.872,740.805 615.307,832.422 617.605,833.265C621.494,834.692 621.334,835.201 621.344,839.501C621.347,840.776 621.379,854.945 621.207,855.434C620.427,857.657 605.631,857.609 599.524,857.915Z" style="fill:rgb(254,254,254);"/>
        <path d="M883.472,832.918C892.749,833.512 896.805,837.758 897.901,828.549C898.194,826.086 908.69,826.921 919.466,827.83C922.151,828.057 921.398,835.312 921.468,859.5C921.477,862.579 919.316,862.142 917.533,862.011C850.084,857.048 835.098,858.64 835.013,855.605C834.36,832.361 836.343,832.506 836.499,832.496C843.395,832.046 841.037,828.196 841.054,824.504C841.082,818.427 841.362,757.019 841.07,748.552C840.96,745.377 835,749.369 834.974,743.501C834.929,733.485 834.623,721.661 836.532,721.673C839.876,721.694 919.025,725.324 920.458,726.551C920.818,726.859 923.558,759.996 918.493,759.656C900.503,758.451 898.152,760.15 897.434,754.506C896.964,750.813 871.837,749.035 871.776,753.502C871.619,764.861 871.141,776.102 873.526,776.352C885.26,777.577 912.719,776.652 912.782,780.472C913.033,795.515 913.606,806.94 910.508,806.787C875.259,805.054 871.887,801.969 871.821,807.506C871.8,809.343 871.601,826.233 871.788,830.464C871.94,833.905 873.689,832.128 883.472,832.918Z" style="fill:rgb(254,254,254);"/>
        <path d="M784.507,829.095C797.24,829.028 799.049,830.845 799.329,827.47C800.341,815.276 806.333,822.443 818.478,822.968C822.184,823.129 823.403,822.618 823.418,826.5C823.513,850.025 824.266,856.998 820.491,856.872C747.908,854.449 737.833,856.225 737.71,853.461C736.713,830.967 737.588,830.226 739.457,830.118C742.711,829.929 744.032,830.785 744.073,827.487C744.154,820.924 745.061,747.018 743.561,745.446C742.737,744.583 737.602,745.252 737.556,743.485C737.04,724.026 737.696,719.868 739.527,719.865C746.149,719.852 820.336,719.704 822.29,721.706C822.486,721.907 825.143,754.931 820.508,754.828C815.407,754.715 799.806,755.142 799.448,752.51C797.507,738.263 790.712,747.214 776.478,747.162C772.779,747.148 772.637,772.701 776.478,772.781C798.541,773.242 815.622,772.302 815.695,775.476C816.104,793.2 816.245,801.848 813.537,801.934C805.774,802.182 774.486,799.886 774.167,802.373C774.102,802.883 773.509,827.357 774.558,828.439C775.113,829.011 775.28,828.486 784.507,829.095Z" style="fill:rgb(254,254,254);"/>
        <path d="M489.543,820.953C490.862,820.829 505.606,819.447 506.081,819.915C507.424,821.239 506.996,821.524 506.439,843.498C506.391,845.365 506.378,845.898 491.143,861.14C487.111,865.175 486.711,865.06 444.455,869.019C428.727,870.493 429.793,866.176 417.876,856.056C411.861,850.949 413.12,849.387 414.161,757.497C414.181,755.764 413.732,755.126 434.759,733.792C437.288,731.226 437.752,732.092 479.541,728.972C488.663,728.291 488.581,729.557 503.32,740.727C507.75,744.085 506.832,750.97 506.705,765.501C506.665,770.079 498.139,769.171 493.508,769.599C481.995,770.665 476.377,776.011 475.86,764.441C475.43,754.816 445.273,756.277 445.308,768.505C445.489,833.443 443.465,836.02 451.624,840.222C452.844,840.851 468.146,839.692 469.21,839.019C476.898,834.164 474.983,832.611 475.786,823.557C475.976,821.412 477.074,822.328 489.543,820.953Z" style="fill:white;"/>
        <path d="M521.422,376.023C593.666,363.331 601.936,361.966 602.388,362.588C602.877,363.261 596.822,379.326 596.635,379.617C595.672,381.112 424.86,409.508 422.505,410.51C419.674,411.714 422.134,541.026 421.163,545.408C420.727,547.381 403.61,546.978 402.468,546.577C400.546,545.901 400.531,397.411 402.521,396.543C404.561,395.653 511.903,377.622 521.422,376.023Z" style="fill:rgb(254,254,254);"/>
        <path d="M1026.426,393.965C1027.753,394.182 1042.58,396.611 1042.613,398.489C1042.823,410.336 1045.213,545.29 1041.543,546.598C1040.133,547.101 1022.968,547.71 1022.899,544.472C1022.523,526.879 1023.822,411.789 1022.166,410.923C1018.412,408.96 874.435,385.178 861.57,383.053C851.054,381.316 849.659,383.033 848.47,379.51C845.476,370.632 841.047,362.52 845.534,363.245C936.257,377.906 935.864,379.244 1026.426,393.965Z" style="fill:rgb(254,254,253);"/>
        <path d="M766.086,895.593C777.067,939.242 778.151,943.874 779.227,940.305C782.004,931.09 790.02,892.202 794.488,892.188C817.587,892.111 824.091,891.864 824.222,893.554C825.213,906.326 823.302,906.088 821.202,908.231C818.163,911.331 820.231,912.135 820.66,962.487C820.688,965.814 824.308,963.866 824.375,967.505C824.393,968.487 824.598,979.597 822.517,979.643C809.013,979.938 797.642,980.897 797.608,976.498C797.606,976.232 795.746,966.171 800.577,964.645C801.628,964.313 802.48,922.522 800.657,924.724C799.906,925.631 789.145,971.212 786.475,971.386C774.897,972.144 770.954,976.461 767.866,965.395C764.236,952.381 754.679,914.671 755.156,926.406C755.896,944.63 754.623,944.458 755.57,962.496C755.762,966.152 759.111,964.673 759.124,968.5C759.148,975.775 763.69,979.594 756.505,979.649C747.963,979.714 732.865,980.793 732.836,977.479C732.766,969.545 728.249,966.881 735.463,964.422C737.104,963.863 737.145,908.865 735.341,907.806C730.648,905.05 732.36,892.268 735.487,892.241C758.067,892.048 764.408,890.888 766.086,895.593Z" style="fill:rgb(254,254,254);"/>
        <path d="M743.55,438.038C724.047,435.772 724.169,435.807 722.486,435.591C717.744,434.984 707.624,389.86 707.576,389.497C707.177,386.455 745.496,361.197 746.566,360.941C750.101,360.096 783.534,387.529 786.283,390.69C789.048,393.87 772.711,433.71 770.369,438.409C770.008,439.134 769.588,440.818 743.55,438.038Z" style="fill:rgb(13,13,0);"/>
        <path d="M679.6,899.391C696.448,914.948 685.173,918.282 683.657,918.731C681.909,919.248 664.601,919.682 664.306,917.548C662.08,901.465 644.144,909.338 643.89,914.517C643.042,931.786 664.067,919.826 683.546,939.457C683.722,939.635 688.914,963.928 680.918,970.967C673.084,977.863 673.926,979.662 668.503,979.711C635.561,980.01 635.491,979.048 634.663,978.31C633.684,977.437 623.296,968.174 623.281,966.515C623.271,965.327 623.15,951.868 625.512,951.838C626.899,951.82 642.59,951.621 642.768,953.444C644.422,970.38 663.878,962.566 664.092,957.49C664.505,947.682 662.742,947.427 653.536,944.388C642.858,940.864 630.743,939.722 623.987,929.188C622.987,927.629 623.104,904.611 623.939,903.811C635.343,892.887 635.772,892.244 651.501,892.201C666.786,892.159 668.357,889.046 679.6,899.391Z" style="fill:rgb(254,254,253);"/>
        <path d="M701.18,477.589C705.226,491.26 708.993,501.364 706.638,502.711C683.39,516.012 680.365,515.033 658.665,499.259C629.925,478.367 644.724,460.193 644.945,459.691C645.444,458.561 650.963,446.047 652.508,446.224C656.034,446.626 655.404,448.532 694.42,460.75C698.71,462.093 696.999,463.761 701.18,477.589Z" style="fill:rgb(13,13,0);"/>
        <path d="M621.64,396.349C617.199,391.526 618.713,390.915 620.295,384.451C624.329,367.968 633.217,355.011 634.796,352.709C636.107,350.799 640.234,344.783 661.5,341.51C663.161,341.254 663.345,342.15 670.384,376.525C671.089,379.966 669.693,379.674 642.167,410.17C639.82,412.771 623.331,397.724 621.64,396.349Z" style="fill:rgb(13,13,13);"/>
        <path d="M719.039,960.502C719.261,963.447 719.919,963.08 722.316,964.804C724.144,966.118 723.733,979.683 720.509,979.701C705.78,979.783 694.013,980.123 693.85,978.395C692.41,963.136 696.736,964.575 697.208,964.175C697.774,963.695 699.049,908.866 696.428,907.708C691.267,905.429 693.784,892.283 695.446,892.237C721.591,891.513 722.679,891.213 722.793,893.4C722.852,894.547 723.506,907.16 721.562,907.705C718.143,908.662 719.076,910.217 719.039,960.502Z" style="fill:rgb(254,254,253);"/>
        <g>
            <path d="M707.449,1003.598C711.714,1002.756 748.94,1003.407 750.493,1003.482C749.874,1015.69 750.086,1015.468 750.013,1027.499C749.977,1033.63 748.314,1034.468 751.514,1036.537C740.129,1043.116 730.223,1050.11 727.439,1048.62C725.762,1047.723 711.601,1040.144 706.655,1037.086C707.616,1034.585 708.571,1032.1 707.449,1003.598Z" style="fill:rgb(74,243,90);"/>
            <path d="M602.581,511.967C611.831,510.473 613.053,508.881 613.494,511.502C613.8,513.318 613.557,527.143 613.533,528.503C613.481,531.47 609.942,530.84 609.511,530.858C509.601,534.943 509.696,536.579 504.46,536.605C496.366,536.646 507.41,533.231 602.581,511.967Z" style="fill:rgb(74,243,90);"/>
            <path d="M833.795,513.503C834.425,511.06 833.806,510.381 835.498,510.381C839.605,510.381 942.316,535.409 942.39,535.559C943.323,537.46 843.981,531.312 835.432,530.783C833.783,530.681 833.794,514.892 833.795,513.503Z" style="fill:rgb(74,243,90);"/>
            <path d="M870.53,894.007C917.699,897.336 921.915,898.52 920.444,900.465C909.556,914.864 904.561,910.544 896.473,909.948C872.849,908.205 873.044,908.4 849.474,906.799C845.353,906.519 846.714,897.489 846.815,894.537C846.928,891.223 863.005,893.451 870.53,894.007Z" style="fill:rgb(74,243,90);"/>
            <path d="M602.055,895.503C601.864,905.294 603.309,906.602 600.624,906.855C545.686,912.023 544.905,911.775 541.578,908.42C533.011,899.782 533.564,898.778 534.498,898.495C535.629,898.153 599.02,891.635 601.25,892.895C601.44,893.002 601.25,892.895 602.055,895.503Z" style="fill:rgb(74,243,90);"/>
            <path d="M854.466,927.938C873.386,929.49 893.059,929.972 889.437,933.446C880.88,941.653 881.42,944.462 869.515,943.313C851.777,941.6 840.687,945.454 846.894,928.685C847.507,927.029 848.079,927.901 854.466,927.938Z" style="fill:rgb(74,243,90);"/>
            <path d="M602.05,935.502C601.644,948.2 595.2,941.939 582.484,943.352C574.533,944.236 575.233,941.755 564.997,933.054C562.564,930.986 569.968,930.235 570.459,930.185C592.169,927.98 598.054,927.834 600.462,927.774C602.913,927.714 601.717,929.061 602.05,935.502Z" style="fill:rgb(74,243,90);"/>
        </g>
        <g>
            <path d="M675.483,1003.464C693.581,1003.163 693.402,1002.473 707.449,1003.598C708.571,1032.1 707.616,1034.585 706.655,1037.086C674.999,1018.516 675.474,1017.935 674.744,1016.413C674.958,1009.821 675.272,1010.055 675.483,1003.464Z" style="fill:rgb(41,159,0);"/>
            <path d="M750.493,1003.482C770.303,1003.131 770.123,1002.409 781.452,1003.587C781.618,1015.501 781.759,1016.12 782.002,1017.181C780.057,1019.317 779.336,1020.11 751.514,1036.537C748.314,1034.468 749.977,1033.63 750.013,1027.499C750.086,1015.468 749.874,1015.69 750.493,1003.482Z" style="fill:rgb(41,159,0);"/>
        </g>
        <path d="M944.671,456.677C939.108,462.491 937.583,461.869 938.13,465.547C939.824,476.957 938.463,477.564 937.629,477.154C929.577,473.195 929.427,470.29 921.372,474.234C920.813,474.508 913.361,478.157 913.701,475.503C914.93,465.901 916.735,464.831 909.955,458.044C909.591,457.68 904.476,452.561 907.363,452.158C917.218,450.785 918.669,453.086 921.081,448.268C925.164,440.111 924.934,433.326 927.95,439.062C932.498,447.709 930.433,450.239 936.548,451.15C947.067,452.717 947.021,452.661 947.115,452.795C947.799,453.772 947.176,453.682 944.671,456.677Z" style="fill:rgb(13,13,28);"/>
        <path d="M520.457,473.587C510.549,469.51 506.137,479.652 503.659,477.344C500.141,474.068 511.929,469.845 499.963,458.042C490.608,448.814 507.35,454.827 511.299,447.393C512.819,444.532 514.186,441.588 515.785,438.771C516.254,437.946 517.46,437.992 522.8,448.329C525.718,453.979 543.526,448.158 532.903,457.937C524.133,466.01 530.29,473.998 529.6,476.54C528.845,479.324 527.854,477.058 520.457,473.587Z" style="fill:rgb(13,13,28);"/>
        <path d="M984.459,789.955C970.957,788.425 970.363,789.303 969.706,787.426C969.421,786.612 969.586,760.553 969.587,760.514C969.624,758.667 986.114,759.959 987.547,760.071C996.516,760.773 1003.936,790.547 984.459,789.955Z" style="fill:rgb(13,13,13);"/>
        <path d="M688.376,750.615C689.431,751.934 695.098,759.021 691.506,771.502C689.375,778.907 665.747,781.503 665.676,775.499C665.432,754.828 665.454,748.818 667.532,748.749C674.315,748.522 684.524,747.089 688.376,750.615Z" style="fill:rgb(13,13,13);"/>
        <path d="M782.51,675.071C775.891,673.847 778.897,671.222 778.888,664.503C778.886,663.107 778.865,647.285 780.4,647.119C792.761,645.775 793.969,643.285 803.35,651.666C806.811,654.758 805.425,668.217 804.36,669.385C796.19,678.337 794.511,675.096 782.51,675.071Z" style="fill:rgb(22,13,13);"/>
        <path d="M778.91,611.498C779.372,598.297 778.318,597.176 780.553,596.861C780.712,596.839 795.532,596.874 796.485,596.903C803.592,597.123 809.966,610.197 805.524,614.523C796.055,623.744 794.681,621.421 781.52,621.083C777.498,620.979 779.389,618.947 778.91,611.498Z" style="fill:rgb(13,13,13);"/>
        <path d="M888.881,638.605C895.652,614.253 895.634,613.524 896.359,613.926C897.725,614.683 905.359,646.717 906.045,649.594C906.406,651.107 905.574,652.694 886.65,651.095C884.87,650.945 886.025,649.906 888.881,638.605Z" style="fill:rgb(28,22,22);"/>
        <path d="M566.639,767.595L567.501,767.54C568.261,767.557 578.657,802.8 575.492,803.465C574.098,803.758 556.119,807.539 557.927,800.6C558.323,799.081 561.309,787.617 562.974,781.633C564.954,774.516 564.795,774.658 566.639,767.595Z" style="fill:rgb(28,22,22);"/>
    </g>
    <g>
        <g>
            <g transform="matrix(1.465726,0,0,1.465726,0,-0.451753)">
                <path d="M280.684,453.671C279.38,457.888 279.419,460.556 277.684,467.552C274.388,480.838 274.177,486.971 272.218,488.018C271.194,488.565 262.467,490.1 260.704,488.302C259.531,487.104 257.175,475.156 255.385,468.531C253.467,461.43 252.866,455.127 252.25,454.793C252.056,454.687 251.818,454.908 251.597,454.911C251.391,454.913 251.145,454.671 250.988,454.805C250.558,455.173 251.037,463.326 251.056,464.505C251.304,479.538 250.534,492.559 251.72,494.382C252.978,496.314 254.178,495.861 254.227,499.504C254.407,512.667 254.411,512.827 253.593,513.605C252.932,514.233 246.598,514.949 244.476,515.042C240.434,515.218 240.489,515.56 236.453,516.038C232.784,516.473 232.865,515.182 232.537,511.497C232.51,511.193 231.81,500.747 231.804,500.489C231.742,497.732 233.97,497.368 234.311,497.161C236.771,495.662 236.627,493.275 236.616,486.501C236.564,454.286 236.641,454.3 236.624,451.5C236.5,430.887 237.203,430.753 235.866,427.35C235.085,425.359 234.233,425.773 233.249,424.728C231.596,422.97 232.056,412.221 232.075,411.485C232.165,407.989 232.883,407.583 236.5,407.493C248.696,407.189 252.505,407.388 253.477,408.521C254.589,409.818 258.057,425.447 258.32,426.546C261.307,438.992 261.929,441.288 262.274,442.562C262.941,445.023 262.826,445.039 263.481,447.505C266.082,457.31 265.449,457.497 265.95,458.221C266.071,458.396 267.139,458.553 267.394,458.38C267.829,458.086 268.076,455.662 268.1,455.42C268.227,454.173 270.897,442.036 271.583,439.524C272.873,434.798 274.031,427.738 275.784,421.575C276.784,418.057 276.472,417.999 277.39,414.471C278.396,410.605 278.242,408.735 279.739,407.884C281.473,406.897 289.871,407.028 290.506,407.047C295.286,407.19 298.791,406.607 299.551,408.476C300.166,409.989 299.815,421.258 299.781,421.531C299.357,424.848 296.914,423.82 296.332,426.465C296.183,427.141 296.18,484.191 296.43,487.504C296.78,492.125 298.763,491.037 299.581,492.432C300.393,493.815 300.155,493.893 300.155,495.498C300.16,507.605 300.213,507.745 299.471,508.473C299.005,508.93 298.492,509.433 291.463,510.008C280.714,510.887 280.452,511.611 279.435,510.569C278.553,509.664 278.82,505.843 278.825,505.512C278.967,495.318 278.582,495.043 280.179,493.228C282.164,490.973 281.93,490.702 281.955,482.507C282.019,461.712 282.302,453.747 282.194,453.647C282.011,453.478 281.708,453.779 281.458,453.783C281.198,453.787 280.945,453.667 280.684,453.671Z" style="fill:white;"/>
            </g>
            <g transform="matrix(1.465726,0,0,1.465726,0,-0.451753)">
                <path d="M469.436,499.108C467.846,499.234 454.11,500.322 449.52,500.022C445.035,499.729 444.934,499.445 441.862,496.162C433.111,486.809 434.079,486.016 434.017,482.514C434.014,482.345 433.713,423.938 434.088,421.454C434.23,420.516 434.476,418.885 440.378,411.403C444.605,406.045 445.379,405.866 448.515,405.727C454.175,405.477 467.754,405.538 469.418,405.928C472.146,406.567 473.345,408.921 478.776,415.262C482.11,419.153 481.771,419.614 481.857,433.495C482.118,475.735 481.857,479.514 481.581,483.506C481.47,485.112 482.242,486.027 476.745,492.693C475.697,493.965 474.166,495.884 473.552,496.546C471.34,498.933 470.023,498.891 469.436,499.108Z" style="fill:white;"/>
            </g>
            <g transform="matrix(1.465726,0,0,1.465726,0,-0.451753)">
                <path d="M523.437,499.079C517.997,499.378 503.397,499.272 501.424,498.761C499.695,498.313 499.068,497.787 493.16,490.797C488.161,484.883 489.109,484.246 489.072,476.503C488.807,422.053 488.879,420.547 489.794,418.639C490.755,416.634 498.636,406.943 500.347,406.197C503.234,404.936 523.401,405.256 525.35,405.962C526.676,406.443 527.263,406.358 534.812,416.275C537.185,419.391 536.906,419.671 536.915,429.496C536.946,443.164 536.976,456.832 537.007,470.501C537.022,483.784 536.815,484.337 536.394,485.458C536.193,485.996 535.774,487.114 532.389,491.414C530.552,493.747 530.371,494.401 527.725,496.747C525.48,498.737 523.91,498.907 523.437,499.079Z" style="fill:white;"/>
            </g>
            <g transform="matrix(1.465726,0,0,1.465726,0,-0.451753)">
                <path d="M594.888,419.479C594.881,418.681 594.871,417.665 594.839,409.499C594.824,405.792 595.724,405.625 598.494,405.701C609.364,405.998 619.424,405.602 628.53,406.03C632.72,406.226 632.926,407.396 638.334,413.639C642.829,418.83 642.779,421.111 642.812,426.498C642.883,438.358 642.567,440.447 642.141,442.433C641.541,445.229 640.967,444.964 638.026,449.152C636.258,451.67 634.745,451.938 636.748,454.289C640.866,459.124 642.983,460.406 643.046,466.512C643.267,488.084 643.041,488.422 640.628,491.594C637.674,495.479 637.698,495.482 636.688,496.658C633.373,500.516 632.844,501.61 626.5,501.501C625.377,501.482 617.662,501.35 612.469,500.98C607.626,500.635 596.577,500.659 595.663,500.202C594.399,499.572 594.71,496.443 594.727,494.502C594.799,486.192 594.34,485.833 596.154,484.1C597.919,482.415 597.781,482.134 597.808,471.501C597.817,467.82 597.905,432.089 597.704,425.491C597.617,422.667 595.98,422.373 595.48,421.515C594.822,420.386 594.922,419.596 594.888,419.479Z" style="fill:white;"/>
            </g>
            <g transform="matrix(1.465726,0,0,1.465726,0,-0.451753)">
                <path d="M690.028,438.562C691.069,446.84 694.417,460.577 696.163,469.568C696.31,470.326 698.734,480.112 699.13,482.567C699.718,486.211 699.704,486.275 701.851,489.265C702.288,489.873 703.403,489.792 702.864,502.517C702.661,507.3 700.493,506.006 694.493,505.866C691.256,505.79 690.504,505.401 688.506,505.333C688.197,505.322 685.14,505.218 684.649,505.028C682.262,504.104 682.753,502.495 682.536,495.499C682.327,488.766 683.472,488.936 684.015,488.138C685.356,486.165 684.682,482.617 681.562,482.127C679.857,481.86 679.839,482.116 671.506,481.42C667.592,481.094 666.217,481.627 665.738,484.543C665.249,487.52 667.891,486.992 667.961,491.486C668.027,495.709 668.308,502.213 667.135,503.001C666.211,503.622 666.11,503.168 654.503,503.098C649.636,503.069 648.965,502.658 648.557,502.409C646.948,501.424 647.242,499.823 646.976,490.504C646.86,486.437 648.837,486.333 649.623,484.559C651.069,481.299 652.667,470.011 654.616,462.531C654.719,462.136 654.677,462.134 655.742,457.555C658.881,444.07 658.561,444.015 661.606,430.524C661.696,430.126 661.546,430.107 662.398,425.483C663.025,422.081 661.36,422.263 661.098,418.536C660.962,416.602 660.826,409.255 661.643,407.571C662.441,405.928 664.232,406.237 670.498,406.283C680.096,406.353 682.662,405.874 683.724,409.42C684.603,412.354 689.948,438.208 690.028,438.562Z" style="fill:white;"/>
            </g>
            <g transform="matrix(1.465726,0,0,1.465726,0,-0.451753)">
                <path d="M322.958,482.499C322.985,480.97 323.015,480.993 323.01,479.486C322.978,469.131 323.421,468.715 321.225,462.608C317.284,451.648 317.553,451.563 317.191,450.617C314.76,444.26 312.812,438.116 312.257,436.592C308.905,427.373 308.891,426.517 306.719,424.283C304.762,422.27 304.54,422.079 304.453,411.5C304.422,407.773 304.787,406.979 308.505,406.96C322.286,406.889 322.277,406.692 323.47,406.8C325.622,406.995 325.616,408.701 325.669,413.498C325.748,420.697 325.917,420.806 324.866,422.693C323.431,425.27 324.548,425.409 325.643,429.455C327.421,436.024 327.76,435.909 329.611,442.453C329.668,442.657 330.365,445.12 331.428,444.381C332.359,443.733 332.015,443.521 332.232,442.418C332.319,441.974 332.326,441.996 333.022,439.368C336.243,427.208 337.862,426.087 336.415,422.537C336.05,421.64 335.02,419.114 335.253,410.497C335.384,405.683 337.281,406.306 341.502,406.34C353.263,406.432 354.059,405.96 355.299,406.791C356.145,407.358 356.613,407.672 356.258,419.492C356.166,422.561 354.844,422.655 353.781,423.769C352.218,425.408 342.133,454.28 340.961,458.624C339.066,465.648 338.108,465.457 338.097,469.498C338.053,485.19 337.972,485.195 338.161,486.546C338.464,488.718 339.719,488.605 340.847,490.314C341.384,491.128 341.405,491.203 341.227,502.496C341.17,506.119 339.572,506.06 336.494,506.121C328.749,506.276 328.671,507.011 322.491,507.101C320.169,507.135 319.38,506.564 319.356,502.499C319.297,492.485 318.622,491.895 320.89,489.968C322.882,488.275 323.066,488.056 322.958,482.499Z" style="fill:white;"/>
            </g>
            <g transform="matrix(1.465726,0,0,1.465726,0,-0.451753)">
                <path d="M386.902,479.503C386.963,464.267 386.951,452.819 386.949,450.498C386.921,424.57 387.689,423.965 385.58,422.392C384.308,421.444 383.509,421.561 383.425,416.5C383.274,407.406 383.621,406.536 385.417,406.108C385.54,406.079 385.539,405.983 405.501,405.955C425.524,405.927 426.218,405.615 427.079,407.635C427.796,409.319 427.761,424.07 427.758,425.501C427.749,429.435 426.865,430.067 420.501,430.52C416.392,430.812 416.841,427.879 416.507,426.499C415.952,424.202 415.385,423.754 406.476,424.072C402.177,424.226 402.098,425.241 402.093,428.499C402.074,444.017 402.058,444.087 402.461,444.528C403.627,445.803 403.979,444.493 413.495,444.28C420.27,444.129 422.179,443.218 422.225,447.503C422.236,448.542 422.324,456.898 422.191,460.485C422.098,462.999 421.647,464.358 410.514,464.156C405.873,464.071 402.715,463.728 402.189,466.434C402.081,466.99 401.981,482.329 402.317,483.546C402.896,485.637 405.267,485.199 405.727,489.477C405.875,490.859 405.745,497.234 405.722,497.513C405.193,503.943 401.665,501.238 388.504,502.549C383.087,503.088 383.465,500.935 383.487,495.5C383.52,487.017 383.32,486.64 385.29,485.19C387.328,483.69 386.863,481.857 386.902,479.503Z" style="fill:white;"/>
            </g>
            <g transform="matrix(1.465726,0,0,1.465726,0,-0.451753)">
                <path d="M755.909,506.494C755.918,504.482 755.909,504.498 756.008,502.486C756.325,496.053 755.177,495.427 757.577,493.612C759.826,491.912 759.766,491.465 759.721,477.499C759.572,431.602 760.472,428.322 757.642,425.356C755.93,423.562 756.118,422.985 756.11,419.498C756.088,409.026 756.007,408.025 757.454,407.411C759.063,406.727 771.673,406.938 774.529,407.156C778.158,407.432 778.219,408.29 778.227,411.497C778.252,422.347 778.373,424.294 777.197,425.076C775.426,426.255 773.68,425.929 774.513,432.499C775.563,440.789 773.752,488.372 775.564,492.467C776.687,495.006 779.035,494.797 779.469,494.846C784.132,495.372 784.088,495.557 784.492,495.601C784.685,495.622 786.232,495.792 786.695,494.598C786.891,494.095 787.042,491.719 787.058,491.468C787.354,486.801 789.674,488.149 793.486,488.624C797.685,489.149 799.086,489.21 799.094,493.498C799.097,495.097 799.13,512.394 799.083,513.486C798.943,516.742 797.695,516.257 794.452,515.96C788.063,515.373 788.082,515.274 787.527,515.228C782.817,514.839 782.823,514.892 775.433,513.981C760.822,512.181 760.82,512.252 759.551,512.091C755.666,511.597 756.144,510.401 755.909,506.494Z" style="fill:white;"/>
            </g>
            <g transform="matrix(1.465726,0,0,1.465726,0,-0.451753)">
                <path d="M707.938,418.5C708.202,408.537 707.781,408.394 708.508,407.507C709.386,406.436 709.668,406.685 725.5,406.756C729.135,406.772 730.172,406.865 730.069,410.498C729.926,415.502 730.222,415.488 730.071,420.493C729.957,424.244 728.603,423.978 727.713,424.751C726.154,426.104 726.675,426.553 726.555,473.5C726.543,478.142 726.075,487.049 727.968,489.033C729.221,490.346 736.405,490.557 737.304,490.119C738.957,489.314 738.333,484.471 739.425,483.418C740.404,482.474 744.138,483.241 744.539,483.324C749.184,484.278 750.249,483.948 750.691,487.479C751.236,491.844 750.745,505.907 750.689,507.509C750.564,511.09 749.107,510.349 745.526,510.169C737.504,509.765 737.539,509.464 733.523,509.213C728.99,508.929 729.035,508.669 724.517,508.293C712.548,507.299 712.567,507.24 711.526,507.176C707.208,506.913 707.879,505.104 707.884,497.5C707.888,491.473 707.654,491.038 709.593,489.652C711.611,488.21 711.765,487.701 711.764,483.499C711.763,479.578 711.753,439.753 711.687,434.497C711.565,424.862 711.612,424.529 709.726,423.152C707.576,421.58 708.189,421.142 707.938,418.5Z" style="fill:white;"/>
            </g>
            <g transform="matrix(1.465726,0,0,1.465726,0,-0.451753)">
                <path d="M557.943,426.475C557.827,425.777 558.123,424.523 556.66,423.279C555.298,422.121 554.359,422.997 554.216,423.131C552.381,424.844 554.025,428.881 550.467,429.22C545.159,429.725 543.435,429.62 542.891,428.313C542.004,426.182 542.594,409.56 542.687,408.518C542.999,405.041 544.443,405.519 549.5,405.529C580.298,405.59 586.775,405.649 587.434,405.773C589.975,406.248 589.188,408.623 589.338,423.501C589.379,427.505 590.14,429.658 584.512,429.829C579.328,429.986 579.173,429.046 578.743,426.458C577.63,419.753 573.981,422.736 573.655,424.529C573.363,426.135 573.494,466.822 573.506,470.5C573.541,481.313 573.117,481.535 574.186,482.753C575.766,484.554 576.621,484.338 576.635,488.5C576.667,497.799 576.979,499.346 573.504,499.596C572.36,499.678 559.859,499.483 558.503,499.426C554.226,499.248 554.822,497.398 555.037,486.487C555.111,482.721 556.856,483.481 557.668,481.576C558.191,480.348 558.065,477.702 558.066,477.497C558.254,445.421 558.01,430.556 557.943,426.475Z" style="fill:white;"/>
            </g>
        </g>
    </g>
    <g transform="matrix(1.465726,0,0,1.465726,0,-0.451753)">
        <path d="M522.072,471.503C522.048,473.657 523.12,478.901 515.511,480.555C513.761,480.936 504.608,481.306 504.052,474.543C503.783,471.271 503.584,468.844 503.766,433.501C503.77,432.715 502.6,423.931 511.506,423.805C515.504,423.748 518.926,423.246 521.37,427.568C522.548,429.653 522.096,437.773 522.072,471.503Z"/>
    </g>
    <g transform="matrix(1.465726,0,0,1.465726,0,-0.451753)">
        <path d="M466.863,471.506C466.773,474.068 466.94,474.078 466.571,475.517C466.326,476.474 464.94,481.885 455.471,480.911C454.932,480.855 451.514,480.503 449.675,477.396C448.4,475.242 448.731,475.054 448.635,435.5C448.626,431.541 448.418,424.058 456.516,423.883C458.871,423.832 464.548,423.123 466.46,428.515C467.068,430.229 466.89,430.284 466.911,449.499C466.913,451.26 466.924,461.454 466.863,471.506Z"/>
    </g>
    <g transform="matrix(1.465726,0,0,1.465726,0,-0.451753)">
        <path d="M615.462,461.069C618.214,460.914 621.849,459.891 625.207,463.746C629.577,468.763 626.572,477.823 626.275,478.38C623.922,482.795 620.742,482.003 620.487,481.993C616.191,481.83 614.226,482.253 613.097,480.757C612.152,479.505 612.801,464.154 612.876,463.552C613.225,460.744 614.777,461.26 615.462,461.069Z"/>
    </g>
    <g transform="matrix(1.465726,0,0,1.465726,0,-0.451753)">
        <path d="M618.494,442.9C614.464,442.855 612.891,443.525 612.836,439.492C612.661,426.527 612.755,426.341 613.268,425.33C613.936,424.012 621.349,424.293 623.62,425.226C627.262,426.723 628.182,433.95 627.595,436.521C627.099,438.696 625.009,441.162 624.527,441.529C622.167,443.322 621.288,442.894 618.494,442.9Z"/>
    </g>
    <g transform="matrix(1.465726,0,0,1.465726,0,-0.451753)">
        <path d="M670.133,461.483C670.588,457.615 673.538,444.673 674.01,439.304C674.092,438.379 673.853,438.218 674.619,437.696C675.972,436.774 676.201,439.358 676.219,439.554C676.675,444.695 678.488,451.634 678.766,454.468C679.19,458.785 680.664,461.61 679.633,463.613C679.445,463.979 679.172,464.508 674.528,464.209C671.121,463.99 670.389,463.714 670.152,462.574C670.078,462.218 670.207,461.839 670.133,461.483Z"/>
    </g>
</svg>
